<svg xmlns="http://www.w3.org/2000/svg" version="1.1" xmlns:xlink="http://www.w3.org/1999/xlink" xmlns:svgjs="http://svgjs.dev/svgjs" width="1538" height="783" preserveAspectRatio="none" viewBox="0 0 1538 783"><g mask="url(&quot;#SvgjsMask1061&quot;)" fill="none"><path d="M415.28 517.94 a152.62 152.62 0 1 0 305.24 0 a152.62 152.62 0 1 0 -305.24 0z" fill="rgba(220, 252, 231, 1)" class="triangle-float3"></path><path d="M149.29805273537124 723.0148951186213L173.1174394619528 600.4747734764361 50.57731781976763 576.6553867498545 26.75793109318606 699.1955083920398z" fill="rgba(220, 252, 231, 1)" class="triangle-float2"></path><path d="M1468.5981026950312 255.9050094775162L1448.0577470074209 109.75278453089115 1301.9055220607959 130.29314021850155 1322.4458777484062 276.4453651651266z" fill="rgba(220, 252, 231, 1)" class="triangle-float1"></path><path d="M1178.536,243.291C1219.82,244.632,1260.867,227.283,1282.07,191.834C1303.795,155.512,1303.554,108.655,1280.158,73.387C1258.756,41.125,1217.242,34.949,1178.536,35.761C1141.637,36.535,1103.441,46.105,1084.04,77.501C1063.76,110.32,1066.924,151.951,1086.028,185.468C1105.328,219.329,1139.582,242.026,1178.536,243.291" fill="rgba(220, 252, 231, 1)" class="triangle-float3"></path><path d="M1127.981724704776 819.3279516298032L1241.92960770613 780.092549036537 1126.1025623155538 628.7884258311391z" fill="rgba(220, 252, 231, 1)" class="triangle-float2"></path><path d="M-20.24,458.252C2.326,459.194,26.519,453.786,38.37,434.559C50.689,414.572,47.51,388.686,34.81,368.938C23.085,350.706,1.435,343.737,-20.24,343.42C-42.616,343.092,-66.844,347.973,-78.154,367.283C-89.552,386.744,-83.061,410.973,-70.949,429.998C-59.811,447.492,-40.961,457.387,-20.24,458.252" fill="rgba(220, 252, 231, 1)" class="triangle-float3"></path><path d="M947.2177230844743 665.4044795007411L870.953205238667 687.2729780901466 941.8882120456789 790.7355055641547z" fill="rgba(220, 252, 231, 1)" class="triangle-float2"></path><path d="M784.5440355054209 677.0679766559036L714.7137802606733 751.9517573934079 861.9545789893035 819.2552498917771z" fill="rgba(220, 252, 231, 1)" class="triangle-float2"></path><path d="M642.1125254066533 107.59034706139911L897.0538198018914 162.033785248132 830.4270296635862-55.892625736936594z" fill="rgba(220, 252, 231, 1)" class="triangle-float1"></path><path d="M716.2085450504504-161.0334680996595L565.462687781636 12.37980362183228 889.6218167719422-10.287610830845068z" fill="rgba(220, 252, 231, 1)" class="triangle-float2"></path><path d="M888.684,722.942C952.149,724.216,1002.857,674.914,1032.711,618.895C1060.662,566.446,1064.37,502.889,1032.786,452.544C1002.909,404.919,944.863,387.144,888.684,389.314C836.569,391.327,789.477,418.25,762.651,462.976C734.984,509.105,730.872,564.904,754.337,613.306C781.363,669.051,826.745,721.698,888.684,722.942" fill="rgba(220, 252, 231, 1)" class="triangle-float1"></path></g><defs><mask id="SvgjsMask1061"><rect width="1538" height="783" fill="#ffffff"></rect></mask><style>
                @keyframes float1 {
                    0%{transform: translate(0, 0)}
                    50%{transform: translate(-10px, 0)}
                    100%{transform: translate(0, 0)}
                }

                .triangle-float1 {
                    animation: float1 5s infinite;
                }

                @keyframes float2 {
                    0%{transform: translate(0, 0)}
                    50%{transform: translate(-5px, -5px)}
                    100%{transform: translate(0, 0)}
                }

                .triangle-float2 {
                    animation: float2 4s infinite;
                }

                @keyframes float3 {
                    0%{transform: translate(0, 0)}
                    50%{transform: translate(0, -10px)}
                    100%{transform: translate(0, 0)}
                }

                .triangle-float3 {
                    animation: float3 6s infinite;
                }
            </style></defs></svg>